ffmpeg started on 2025-06-27 at 12:11:54
Report written to "D:\Convert\FFMetrics\reports\psnr_report-6.txt"
Log level: 32
Command line:
ffmpeg -hide_banner -nostdin -i "G:\\\xc0\xed\xe8\xec\xe5\\[\xd2\xee\xef]\\\xcf\xf0\xee\xe4\xe5\xeb\xea\xe8 \xd1\xe0\xea\xf3\xf0\xfb\\Bonus\\Menu\\Sakura Trick TV Menu 1_HEVC.mkv" -i "G:\\\xc0\xed\xe8\xec\xe5\\[\xd2\xee\xef]\\\xcf\xf0\xee\xe4\xe5\xeb\xea\xe8 \xd1\xe0\xea\xf3\xf0\xfb\\Bonus\\Menu\\Sakura Trick TV Menu 1.mkv" -lavfi "[0:v]settb=AVTB,setpts=PTS-STARTPTS,format=pix_fmts=yuv420p10,fps=24000/1001,scale=1920:1080:flags=bicubic[main];[1:v]settb=AVTB,setpts=PTS-STARTPTS,format=pix_fmts=yuv420p10,fps=24000/1001,scale=1920:1080:flags=bicubic[ref];[main][ref]psnr=eof_action=endall:stats_file='D\\:/Convert/FFMetrics/logs/psnr_logfile-6.txt'" -f null -
Input #0, matroska,webm, from 'G:\Аниме\[Топ]\Проделки Сакуры\Bonus\Menu\Sakura Trick TV Menu 1_HEVC.mkv':
  Metadata:
    title           : Sakura Trick TV Menu 1
    ENCODER         : Lavf61.7.100
  Duration: 00:01:43.96, start: -0.021000, bitrate: 628 kb/s
  Stream #0:0(jpn): Video: hevc (Main 10), yuv420p10le(tv, bt709, progressive), 1920x1080 [SAR 1:1 DAR 16:9], 23.98 fps, 23.98 tbr, 1k tbn (default)
      Metadata:
        title           : [VCB & Hakugetsu & DMG]
        ENCODER         : Lavc61.19.100 libx265
        BPS             : 427937
        DURATION        : 00:01:43.936708333
        NUMBER_OF_FRAMES: 2492
        NUMBER_OF_BYTES : 5559769
        _STATISTICS_WRITING_APP: mkvpropedit v66.0.0 ('Josie') 64-bit
        _STATISTICS_WRITING_DATE_UTC: 2025-06-27 08:36:38
        _STATISTICS_TAGS: BPS DURATION NUMBER_OF_FRAMES NUMBER_OF_BYTES
  Stream #0:1(jpn): Audio: aac (LC), 48000 Hz, stereo, fltp (default)
      Metadata:
        title           : [Original]
        ENCODER         : Lavc61.19.100 aac
        BPS             : 196150
        DURATION        : 00:01:43.957000000
        NUMBER_OF_FRAMES: 4874
        NUMBER_OF_BYTES : 2548908
        _STATISTICS_WRITING_APP: mkvpropedit v66.0.0 ('Josie') 64-bit
        _STATISTICS_WRITING_DATE_UTC: 2025-06-27 08:36:38
        _STATISTICS_TAGS: BPS DURATION NUMBER_OF_FRAMES NUMBER_OF_BYTES
Input #1, matroska,webm, from 'G:\Аниме\[Топ]\Проделки Сакуры\Bonus\Menu\Sakura Trick TV Menu 1.mkv':
  Metadata:
    title           : Sakura Trick TV Menu 1
    encoder         : libebml v1.3.6 + libmatroska v1.4.9
    creation_time   : 2018-07-04T17:49:31.000000Z
  Duration: 00:01:43.94, start: 0.000000, bitrate: 2188 kb/s
  Stream #1:0(jpn): Video: h264 (High 10), yuv420p10le(tv, bt709/unknown/unknown, progressive), 1920x1080 [SAR 1:1 DAR 16:9], 23.98 fps, 23.98 tbr, 1k tbn (default)
      Metadata:
        title           : [VCB & Hakugetsu & DMG]
  Stream #1:1(jpn): Audio: flac, 48000 Hz, stereo, s16 (default)
      Metadata:
        title           : [Original]
Stream mapping:
  Stream #0:0 (hevc) -> settb:default
  Stream #1:0 (h264) -> settb:default
  psnr:default -> Stream #0:0 (wrapped_avframe)
  Stream #0:1 -> #0:1 (aac (native) -> pcm_s16le (native))
Output #0, null, to 'pipe:':
  Metadata:
    title           : Sakura Trick TV Menu 1
    encoder         : Lavf61.7.100
  Stream #0:0: Video: wrapped_avframe, yuv420p10le(tv, bt709, progressive), 1920x1080 [SAR 1:1 DAR 16:9], q=2-31, 200 kb/s, 23.98 fps, 23.98 tbn
      Metadata:
        encoder         : Lavc61.19.100 wrapped_avframe
  Stream #0:1(jpn): Audio: pcm_s16le, 48000 Hz, stereo, s16, 1536 kb/s (default)
      Metadata:
        title           : [Original]
        _STATISTICS_TAGS: BPS DURATION NUMBER_OF_FRAMES NUMBER_OF_BYTES
        BPS             : 196150
        DURATION        : 00:01:43.957000000
        NUMBER_OF_FRAMES: 4874
        NUMBER_OF_BYTES : 2548908
        _STATISTICS_WRITING_APP: mkvpropedit v66.0.0 ('Josie') 64-bit
        _STATISTICS_WRITING_DATE_UTC: 2025-06-27 08:36:38
        encoder         : Lavc61.19.100 pcm_s16le
frame=  192 fps=0.0 q=-0.0 size=N/A time=00:00:08.00 bitrate=N/A speed=15.6x    frame=  477 fps=459 q=-0.0 size=N/A time=00:00:19.89 bitrate=N/A speed=19.2x    frame=  751 fps=484 q=-0.0 size=N/A time=00:00:31.32 bitrate=N/A speed=20.2x    frame= 1017 fps=493 q=-0.0 size=N/A time=00:00:42.41 bitrate=N/A speed=20.6x    frame= 1306 fps=507 q=-0.0 size=N/A time=00:00:54.47 bitrate=N/A speed=21.2x    frame= 1583 fps=510 q=-0.0 size=N/A time=00:01:06.02 bitrate=N/A speed=21.3x    frame= 1873 fps=519 q=-0.0 size=N/A time=00:01:18.11 bitrate=N/A speed=21.6x    frame= 2148 fps=521 q=-0.0 size=N/A time=00:01:29.58 bitrate=N/A speed=21.7x    frame= 2421 fps=521 q=-0.0 size=N/A time=00:01:40.97 bitrate=N/A speed=21.7x    [Parsed_psnr_10 @ 00000186379f58c0] PSNR y:47.125218 u:49.494139 v:48.273638 average:47.625456 min:44.125829 max:inf
[out#0/null @ 00000186379ced80] video:1071KiB audio:19496KiB subtitle:0KiB other streams:0KiB global headers:0KiB muxing overhead: unknown
frame= 2492 fps=524 q=-0.0 Lsize=N/A time=00:01:43.93 bitrate=N/A speed=21.9x    
